{
  "asset": {
    "generator": "glTF-Transform v4.4.2",
    "version": "2.0"
  },
  "accessors": [
    {
      "type": "SCALAR",
      "componentType": 5123,
      "count": 8460,
      "bufferView": 0,
      "byteOffset": 0
    },
    {
      "type": "SCALAR",
      "componentType": 5123,
      "count": 1584,
      "bufferView": 0,
      "byteOffset": 16920
    },
    {
      "type": "SCALAR",
      "componentType": 5123,
      "count": 6012,
      "bufferView": 0,
      "byteOffset": 20088
    },
    {
      "type": "SCALAR",
      "componentType": 5123,
      "count": 5544,
      "bufferView": 0,
      "byteOffset": 32112
    },
    {
      "type": "SCALAR",
      "componentType": 5123,
      "count": 4236,
      "bufferView": 0,
      "byteOffset": 43200
    },
    {
      "type": "SCALAR",
      "componentType": 5123,
      "count": 4668,
      "bufferView": 0,
      "byteOffset": 51672
    },
    {
      "type": "SCALAR",
      "componentType": 5123,
      "count": 3216,
      "bufferView": 0,
      "byteOffset": 61008
    },
    {
      "type": "SCALAR",
      "componentType": 5123,
      "count": 3900,
      "bufferView": 0,
      "byteOffset": 67440
    },
    {
      "type": "SCALAR",
      "componentType": 5123,
      "count": 9360,
      "bufferView": 0,
      "byteOffset": 75240
    },
    {
      "type": "SCALAR",
      "componentType": 5123,
      "count": 828,
      "bufferView": 0,
      "byteOffset": 93960
    },
    {
      "type": "SCALAR",
      "componentType": 5123,
      "count": 12060,
      "bufferView": 0,
      "byteOffset": 95616
    },
    {
      "type": "SCALAR",
      "componentType": 5123,
      "count": 3960,
      "bufferView": 0,
      "byteOffset": 119736
    },
    {
      "type": "SCALAR",
      "componentType": 5123,
      "count": 2484,
      "bufferView": 0,
      "byteOffset": 127656
    },
    {
      "type": "VEC3",
      "componentType": 5122,
      "count": 3728,
      "max": [
        4807,
        -18605,
        9944
      ],
      "min": [
        -801,
        -19841,
        -2673
      ],
      "normalized": true,
      "bufferView": 1,
      "byteOffset": 0
    },
    {
      "type": "VEC3",
      "componentType": 5122,
      "count": 3728,
      "normalized": true,
      "bufferView": 1,
      "byteOffset": 8
    },
    {
      "type": "VEC2",
      "componentType": 5123,
      "count": 3728,
      "normalized": true,
      "bufferView": 1,
      "byteOffset": 16
    },
    {
      "type": "VEC3",
      "componentType": 5122,
      "count": 944,
      "max": [
        958,
        -18047,
        6558
      ],
      "min": [
        -2939,
        -20767,
        1319
      ],
      "normalized": true,
      "bufferView": 2,
      "byteOffset": 0
    },
    {
      "type": "VEC3",
      "componentType": 5122,
      "count": 944,
      "normalized": true,
      "bufferView": 2,
      "byteOffset": 8
    },
    {
      "type": "VEC2",
      "componentType": 5123,
      "count": 944,
      "normalized": true,
      "bufferView": 2,
      "byteOffset": 16
    },
    {
      "type": "VEC3",
      "componentType": 5122,
      "count": 2512,
      "max": [
        1813,
        -17465,
        6104
      ],
      "min": [
        -1324,
        -21029,
        1533
      ],
      "normalized": true,
      "bufferView": 3,
      "byteOffset": 0
    },
    {
      "type": "VEC3",
      "componentType": 5122,
      "count": 2512,
      "normalized": true,
      "bufferView": 3,
      "byteOffset": 8
    },
    {
      "type": "VEC2",
      "componentType": 5123,
      "count": 2512,
      "normalized": true,
      "bufferView": 3,
      "byteOffset": 16
    },
    {
      "type": "VEC3",
      "componentType": 5122,
      "count": 2904,
      "max": [
        2055,
        -17037,
        6451
      ],
      "min": [
        -1566,
        -21385,
        1129
      ],
      "normalized": true,
      "bufferView": 4,
      "byteOffset": 0
    },
    {
      "type": "VEC3",
      "componentType": 5122,
      "count": 2904,
      "normalized": true,
      "bufferView": 4,
      "byteOffset": 8
    },
    {
      "type": "VEC2",
      "componentType": 5123,
      "count": 2904,
      "normalized": true,
      "bufferView": 4,
      "byteOffset": 16
    },
    {
      "type": "VEC3",
      "componentType": 5122,
      "count": 1367,
      "max": [
        1908,
        -18368,
        5040
      ],
      "min": [
        -1419,
        -20649,
        1889
      ],
      "normalized": true,
      "bufferView": 5,
      "byteOffset": 0
    },
    {
      "type": "VEC3",
      "componentType": 5122,
      "count": 1367,
      "normalized": true,
      "bufferView": 5,
      "byteOffset": 8
    },
    {
      "type": "VEC2",
      "componentType": 5123,
      "count": 1367,
      "normalized": true,
      "bufferView": 5,
      "byteOffset": 16
    },
    {
      "type": "VEC3",
      "componentType": 5122,
      "count": 992,
      "max": [
        3507,
        14713,
        5358
      ],
      "min": [
        -3018,
        9001,
        -9944
      ],
      "normalized": true,
      "bufferView": 6,
      "byteOffset": 0
    },
    {
      "type": "VEC3",
      "componentType": 5122,
      "count": 992,
      "normalized": true,
      "bufferView": 6,
      "byteOffset": 8
    },
    {
      "type": "VEC2",
      "componentType": 5123,
      "count": 992,
      "normalized": true,
      "bufferView": 6,
      "byteOffset": 16
    },
    {
      "type": "VEC3",
      "componentType": 5122,
      "count": 1000,
      "max": [
        3429,
        -5608,
        6831
      ],
      "min": [
        -2939,
        -32767,
        463
      ],
      "normalized": true,
      "bufferView": 7,
      "byteOffset": 0
    },
    {
      "type": "VEC3",
      "componentType": 5122,
      "count": 1000,
      "normalized": true,
      "bufferView": 7,
      "byteOffset": 8
    },
    {
      "type": "VEC2",
      "componentType": 5123,
      "count": 1000,
      "normalized": true,
      "bufferView": 7,
      "byteOffset": 16
    },
    {
      "type": "VEC3",
      "componentType": 5122,
      "count": 1722,
      "max": [
        2906,
        -18415,
        6309
      ],
      "min": [
        -2417,
        -20554,
        986
      ],
      "normalized": true,
      "bufferView": 8,
      "byteOffset": 0
    },
    {
      "type": "VEC3",
      "componentType": 5122,
      "count": 1722,
      "normalized": true,
      "bufferView": 8,
      "byteOffset": 8
    },
    {
      "type": "VEC2",
      "componentType": 5123,
      "count": 1722,
      "normalized": true,
      "bufferView": 8,
      "byteOffset": 16
    },
    {
      "type": "VEC3",
      "componentType": 5122,
      "count": 5408,
      "max": [
        2838,
        -19204,
        6240
      ],
      "min": [
        -2348,
        -19812,
        1054
      ],
      "normalized": true,
      "bufferView": 9,
      "byteOffset": 0
    },
    {
      "type": "VEC3",
      "componentType": 5122,
      "count": 5408,
      "normalized": true,
      "bufferView": 9,
      "byteOffset": 8
    },
    {
      "type": "VEC2",
      "componentType": 5123,
      "count": 5408,
      "normalized": true,
      "bufferView": 9,
      "byteOffset": 16
    },
    {
      "type": "VEC3",
      "componentType": 5122,
      "count": 140,
      "max": [
        1608,
        32767,
        7907
      ],
      "min": [
        -704,
        13330,
        6612
      ],
      "normalized": true,
      "bufferView": 10,
      "byteOffset": 0
    },
    {
      "type": "VEC3",
      "componentType": 5122,
      "count": 140,
      "normalized": true,
      "bufferView": 10,
      "byteOffset": 8
    },
    {
      "type": "VEC2",
      "componentType": 5123,
      "count": 140,
      "normalized": true,
      "bufferView": 10,
      "byteOffset": 16
    },
    {
      "type": "VEC3",
      "componentType": 5122,
      "count": 140,
      "max": [
        18357,
        11140,
        7907
      ],
      "min": [
        1497,
        548,
        6612
      ],
      "normalized": true,
      "bufferView": 11,
      "byteOffset": 0
    },
    {
      "type": "VEC3",
      "componentType": 5122,
      "count": 140,
      "normalized": true,
      "bufferView": 11,
      "byteOffset": 8
    },
    {
      "type": "VEC3",
      "componentType": 5122,
      "count": 140,
      "max": [
        -1020,
        11160,
        7907
      ],
      "min": [
        -18357,
        1395,
        6612
      ],
      "normalized": true,
      "bufferView": 12,
      "byteOffset": 0
    },
    {
      "type": "VEC3",
      "componentType": 5122,
      "count": 140,
      "normalized": true,
      "bufferView": 12,
      "byteOffset": 8
    },
    {
      "type": "VEC3",
      "componentType": 5122,
      "count": 2310,
      "max": [
        2716,
        -17122,
        5444
      ],
      "min": [
        -2226,
        -21433,
        1851
      ],
      "normalized": true,
      "bufferView": 13,
      "byteOffset": 0
    },
    {
      "type": "VEC3",
      "componentType": 5122,
      "count": 2310,
      "normalized": true,
      "bufferView": 13,
      "byteOffset": 8
    },
    {
      "type": "VEC2",
      "componentType": 5123,
      "count": 2310,
      "normalized": true,
      "bufferView": 13,
      "byteOffset": 16
    },
    {
      "type": "VEC3",
      "componentType": 5122,
      "count": 1161,
      "max": [
        1670,
        -15611,
        5073
      ],
      "min": [
        -1181,
        -23132,
        2222
      ],
      "normalized": true,
      "bufferView": 14,
      "byteOffset": 0
    },
    {
      "type": "VEC3",
      "componentType": 5122,
      "count": 1161,
      "normalized": true,
      "bufferView": 14,
      "byteOffset": 8
    },
    {
      "type": "VEC2",
      "componentType": 5123,
      "count": 1161,
      "normalized": true,
      "bufferView": 14,
      "byteOffset": 16
    },
    {
      "type": "VEC3",
      "componentType": 5122,
      "count": 448,
      "max": [
        1956,
        13330,
        9920
      ],
      "min": [
        -1466,
        9909,
        7069
      ],
      "normalized": true,
      "bufferView": 15,
      "byteOffset": 0
    },
    {
      "type": "VEC3",
      "componentType": 5122,
      "count": 448,
      "normalized": true,
      "bufferView": 15,
      "byteOffset": 8
    },
    {
      "type": "VEC2",
      "componentType": 5123,
      "count": 448,
      "normalized": true,
      "bufferView": 15,
      "byteOffset": 16
    }
  ],
  "bufferViews": [
    {
      "buffer": 0,
      "byteOffset": 0,
      "byteLength": 132624,
      "target": 34963
    },
    {
      "buffer": 0,
      "byteOffset": 132624,
      "byteLength": 74560,
      "byteStride": 20,
      "target": 34962
    },
    {
      "buffer": 0,
      "byteOffset": 207184,
      "byteLength": 18880,
      "byteStride": 20,
      "target": 34962
    },
    {
      "buffer": 0,
      "byteOffset": 226064,
      "byteLength": 50240,
      "byteStride": 20,
      "target": 34962
    },
    {
      "buffer": 0,
      "byteOffset": 276304,
      "byteLength": 58080,
      "byteStride": 20,
      "target": 34962
    },
    {
      "buffer": 0,
      "byteOffset": 334384,
      "byteLength": 27340,
      "byteStride": 20,
      "target": 34962
    },
    {
      "buffer": 0,
      "byteOffset": 361724,
      "byteLength": 19840,
      "byteStride": 20,
      "target": 34962
    },
    {
      "buffer": 0,
      "byteOffset": 381564,
      "byteLength": 20000,
      "byteStride": 20,
      "target": 34962
    },
    {
      "buffer": 0,
      "byteOffset": 401564,
      "byteLength": 34440,
      "byteStride": 20,
      "target": 34962
    },
    {
      "buffer": 0,
      "byteOffset": 436004,
      "byteLength": 108160,
      "byteStride": 20,
      "target": 34962
    },
    {
      "buffer": 0,
      "byteOffset": 544164,
      "byteLength": 2800,
      "byteStride": 20,
      "target": 34962
    },
    {
      "buffer": 0,
      "byteOffset": 546964,
      "byteLength": 2240,
      "byteStride": 16,
      "target": 34962
    },
    {
      "buffer": 0,
      "byteOffset": 549204,
      "byteLength": 2240,
      "byteStride": 16,
      "target": 34962
    },
    {
      "buffer": 0,
      "byteOffset": 551444,
      "byteLength": 46200,
      "byteStride": 20,
      "target": 34962
    },
    {
      "buffer": 0,
      "byteOffset": 597644,
      "byteLength": 23220,
      "byteStride": 20,
      "target": 34962
    },
    {
      "buffer": 0,
      "byteOffset": 620864,
      "byteLength": 8960,
      "byteStride": 20,
      "target": 34962
    }
  ],
  "samplers": [
    {
      "magFilter": 9729,
      "minFilter": 9987,
      "wrapS": 10497,
      "wrapT": 10497
    }
  ],
  "textures": [
    {
      "sampler": 0,
      "extensions": {
        "KHR_texture_basisu": {
          "source": 2
        }
      }
    },
    {
      "sampler": 0,
      "extensions": {
        "KHR_texture_basisu": {
          "source": 0
        }
      }
    },
    {
      "sampler": 0,
      "extensions": {
        "KHR_texture_basisu": {
          "source": 1
        }
      }
    }
  ],
  "images": [
    {
      "name": "C_Turbine_Normal",
      "mimeType": "image/ktx2",
      "uri": "normal_1.ktx2"
    },
    {
      "name": "C_Turbine_ORM",
      "mimeType": "image/ktx2",
      "uri": "occlusion_1.ktx2"
    },
    {
      "name": "C_Turbine_BaseColor",
      "mimeType": "image/ktx2",
      "uri": "baseColor_1.ktx2"
    }
  ],
  "buffers": [
    {
      "uri": "C_dismantlable_turbine.bin",
      "byteLength": 629824
    }
  ],
  "materials": [
    {
      "name": "MAT__C_TURBINE_PBR",
      "doubleSided": true,
      "pbrMetallicRoughness": {
        "baseColorTexture": {
          "index": 0
        },
        "metallicRoughnessTexture": {
          "index": 2
        }
      },
      "normalTexture": {
        "index": 1,
        "scale": 0.23999999463558197
      },
      "occlusionTexture": {
        "index": 2
      }
    }
  ],
  "meshes": [
    {
      "name": "Cube.065",
      "primitives": [
        {
          "attributes": {
            "POSITION": 13,
            "NORMAL": 14,
            "TEXCOORD_0": 15
          },
          "mode": 4,
          "material": 0,
          "indices": 0
        }
      ]
    },
    {
      "name": "Cube.094",
      "primitives": [
        {
          "attributes": {
            "POSITION": 16,
            "NORMAL": 17,
            "TEXCOORD_0": 18
          },
          "mode": 4,
          "material": 0,
          "indices": 1
        }
      ]
    },
    {
      "name": "Cube.077",
      "primitives": [
        {
          "attributes": {
            "POSITION": 19,
            "NORMAL": 20,
            "TEXCOORD_0": 21
          },
          "mode": 4,
          "material": 0,
          "indices": 2
        }
      ]
    },
    {
      "name": "Cube.082",
      "primitives": [
        {
          "attributes": {
            "POSITION": 22,
            "NORMAL": 23,
            "TEXCOORD_0": 24
          },
          "mode": 4,
          "material": 0,
          "indices": 3
        }
      ]
    },
    {
      "name": "Torus.008",
      "primitives": [
        {
          "attributes": {
            "POSITION": 25,
            "NORMAL": 26,
            "TEXCOORD_0": 27
          },
          "mode": 4,
          "material": 0,
          "indices": 4
        }
      ]
    },
    {
      "name": "nacelle_shell",
      "primitives": [
        {
          "attributes": {
            "POSITION": 28,
            "NORMAL": 29,
            "TEXCOORD_0": 30
          },
          "mode": 4,
          "material": 0,
          "indices": 5
        }
      ]
    },
    {
      "name": "Cone",
      "primitives": [
        {
          "attributes": {
            "POSITION": 31,
            "NORMAL": 32,
            "TEXCOORD_0": 33
          },
          "mode": 4,
          "material": 0,
          "indices": 6
        }
      ]
    },
    {
      "name": "Cylinder.002",
      "primitives": [
        {
          "attributes": {
            "POSITION": 34,
            "NORMAL": 35,
            "TEXCOORD_0": 36
          },
          "mode": 4,
          "material": 0,
          "indices": 7
        }
      ]
    },
    {
      "name": "Torus",
      "primitives": [
        {
          "attributes": {
            "POSITION": 37,
            "NORMAL": 38,
            "TEXCOORD_0": 39
          },
          "mode": 4,
          "material": 0,
          "indices": 8
        }
      ]
    },
    {
      "name": "part__blade_a",
      "primitives": [
        {
          "attributes": {
            "POSITION": 40,
            "NORMAL": 41,
            "TEXCOORD_0": 42
          },
          "mode": 4,
          "material": 0,
          "indices": 9
        }
      ]
    },
    {
      "name": "part__blade_b",
      "primitives": [
        {
          "attributes": {
            "POSITION": 43,
            "NORMAL": 44,
            "TEXCOORD_0": 42
          },
          "mode": 4,
          "material": 0,
          "indices": 9
        }
      ]
    },
    {
      "name": "part__blade_c",
      "primitives": [
        {
          "attributes": {
            "POSITION": 45,
            "NORMAL": 46,
            "TEXCOORD_0": 42
          },
          "mode": 4,
          "material": 0,
          "indices": 9
        }
      ]
    },
    {
      "name": "Sphere",
      "primitives": [
        {
          "attributes": {
            "POSITION": 47,
            "NORMAL": 48,
            "TEXCOORD_0": 49
          },
          "mode": 4,
          "material": 0,
          "indices": 10
        }
      ]
    },
    {
      "name": "Cylinder.016",
      "primitives": [
        {
          "attributes": {
            "POSITION": 50,
            "NORMAL": 51,
            "TEXCOORD_0": 52
          },
          "mode": 4,
          "material": 0,
          "indices": 11
        }
      ]
    },
    {
      "name": "spinner",
      "primitives": [
        {
          "attributes": {
            "POSITION": 53,
            "NORMAL": 54,
            "TEXCOORD_0": 55
          },
          "mode": 4,
          "material": 0,
          "indices": 12
        }
      ]
    }
  ],
  "nodes": [
    {
      "name": "HOTSPOT__BRAKE_UNIT",
      "extras": {
        "target": "PART__BRAKE_UNIT",
        "display_name": "制动与控制单元",
        "interactive": true
      }
    },
    {
      "name": "HOTSPOT__GEARBOX",
      "extras": {
        "target": "PART__GEARBOX",
        "display_name": "齿轮箱",
        "interactive": true
      }
    },
    {
      "name": "HOTSPOT__GENERATOR",
      "extras": {
        "target": "PART__GENERATOR",
        "display_name": "发电机",
        "interactive": true
      }
    },
    {
      "name": "HOTSPOT__HUB",
      "extras": {
        "target": "PART__HUB",
        "display_name": "三叶轮毂",
        "interactive": true
      }
    },
    {
      "name": "HOTSPOT__MAIN_BEARING",
      "extras": {
        "target": "PART__MAIN_BEARING",
        "display_name": "主轴承座",
        "interactive": true
      }
    },
    {
      "name": "HOTSPOT__MAIN_SHAFT",
      "extras": {
        "target": "PART__MAIN_SHAFT",
        "display_name": "主轴与法兰",
        "interactive": true
      }
    },
    {
      "name": "HOTSPOT__NACELLE_SHELL",
      "extras": {
        "target": "PART__NACELLE_SHELL",
        "display_name": "圆角胶囊机舱壳",
        "interactive": true
      }
    },
    {
      "name": "HOTSPOT__TOWER",
      "extras": {
        "target": "PART__TOWER",
        "display_name": "锥形塔筒",
        "interactive": true
      }
    },
    {
      "name": "HOTSPOT__YAW_GEAR",
      "extras": {
        "target": "PART__YAW_GEAR",
        "display_name": "偏航齿圈",
        "interactive": true
      }
    },
    {
      "name": "PART__BEDPLATE",
      "extras": {
        "asset_zone": "silver_plate",
        "canonical_name": "PART__BEDPLATE",
        "interactive": true,
        "display_name": "阶梯式机舱底板",
        "part_type": "support",
        "explode_vector": [
          0,
          0,
          0.42
        ],
        "assembly_order": 4,
        "material_zone": "silver_plate",
        "detail_level": "web_low"
      },
      "translation": [
        -0.42149996757507324,
        10.244999885559082,
        -1.8874999284744263
      ],
      "scale": [
        6.894999980926514,
        6.894999980926514,
        6.894999980926514
      ],
      "mesh": 0
    },
    {
      "name": "PART__BRAKE_UNIT",
      "extras": {
        "asset_zone": "red_transmission",
        "canonical_name": "PART__BRAKE_UNIT",
        "interactive": true,
        "display_name": "制动与控制单元",
        "part_type": "drivetrain",
        "explode_vector": [
          0.68,
          0.62,
          0.22
        ],
        "assembly_order": 5,
        "material_zone": "red_transmission",
        "detail_level": "web_low"
      },
      "translation": [
        0.4085000455379486,
        10.65500020980835,
        -2.6074999570846558
      ],
      "scale": [
        6.894999980926514,
        6.894999980926514,
        6.894999980926514
      ],
      "mesh": 1
    },
    {
      "name": "PART__GEARBOX",
      "extras": {
        "asset_zone": "blue_machine",
        "canonical_name": "PART__GEARBOX",
        "interactive": true,
        "display_name": "齿轮箱",
        "part_type": "drivetrain",
        "explode_vector": [
          0,
          0.4,
          0.28
        ],
        "assembly_order": 7,
        "material_zone": "blue_machine",
        "detail_level": "web_low"
      },
      "translation": [
        -0.05149996280670166,
        10.675000190734863,
        -1.5874999165534973
      ],
      "scale": [
        6.894999980926514,
        6.894999980926514,
        6.894999980926514
      ],
      "mesh": 2
    },
    {
      "name": "PART__GENERATOR",
      "extras": {
        "asset_zone": "blue_machine",
        "canonical_name": "PART__GENERATOR",
        "interactive": true,
        "display_name": "发电机",
        "part_type": "drivetrain",
        "explode_vector": [
          0,
          0.82,
          0.34
        ],
        "assembly_order": 6,
        "material_zone": "blue_machine",
        "detail_level": "web_low"
      },
      "translation": [
        -0.05149996280670166,
        10.704999923706055,
        -2.597499966621399
      ],
      "scale": [
        6.894999980926514,
        6.894999980926514,
        6.894999980926514
      ],
      "mesh": 3
    },
    {
      "name": "PART__MAIN_BEARING",
      "extras": {
        "asset_zone": "blue_machine",
        "canonical_name": "PART__MAIN_BEARING",
        "interactive": true,
        "display_name": "主轴承座",
        "part_type": "drivetrain",
        "explode_vector": [
          -0.55,
          0,
          0.18
        ],
        "assembly_order": 8,
        "material_zone": "blue_machine",
        "detail_level": "web_low"
      },
      "translation": [
        -0.05149996280670166,
        5.782499049704794,
        -4.324999644861873
      ],
      "rotation": [
        -0.7071068882942236,
        0,
        0,
        0.7071066740788552
      ],
      "scale": [
        6.894999980926514,
        6.894999744920839,
        6.894999744920839
      ],
      "mesh": 4
    },
    {
      "name": "PART__NACELLE_SHELL",
      "extras": {
        "asset_zone": "white_composite",
        "canonical_name": "PART__NACELLE_SHELL",
        "interactive": true,
        "display_name": "圆角胶囊机舱壳",
        "part_type": "shell",
        "explode_vector": [
          0,
          0.72,
          0.86
        ],
        "assembly_order": 12,
        "material_zone": "white_composite",
        "detail_level": "web_low"
      },
      "translation": [
        -0.05149996280670166,
        4.105000019073486,
        -0.7674999237060547
      ],
      "scale": [
        6.894999980926514,
        6.894999980926514,
        6.894999980926514
      ],
      "mesh": 5
    },
    {
      "name": "PART__TOWER",
      "extras": {
        "asset_zone": "white_composite",
        "canonical_name": "PART__TOWER",
        "interactive": true,
        "display_name": "锥形塔筒",
        "part_type": "structure",
        "explode_vector": [
          0,
          0,
          -1.2
        ],
        "assembly_order": 1,
        "material_zone": "white_composite",
        "detail_level": "web_low"
      },
      "translation": [
        -0.05149996280670166,
        6.894999980926514,
        -0.7674999237060547
      ],
      "scale": [
        6.894999980926514,
        6.894999980926514,
        6.894999980926514
      ],
      "mesh": 6
    },
    {
      "name": "PART__YAW_BASE",
      "extras": {
        "asset_zone": "white_composite",
        "canonical_name": "PART__YAW_BASE",
        "interactive": true,
        "display_name": "偏航承载座",
        "part_type": "yaw",
        "explode_vector": [
          0,
          0,
          -0.72
        ],
        "assembly_order": 2,
        "material_zone": "white_composite",
        "detail_level": "web_low"
      },
      "translation": [
        -0.05149996280670166,
        9.925000190734863,
        -0.9474999308586121
      ],
      "scale": [
        6.894999980926514,
        6.894999980926514,
        6.894999980926514
      ],
      "mesh": 7
    },
    {
      "name": "PART__YAW_GEAR",
      "extras": {
        "asset_zone": "black_steel",
        "canonical_name": "PART__YAW_GEAR",
        "interactive": true,
        "display_name": "偏航齿圈",
        "part_type": "yaw",
        "explode_vector": [
          0,
          0,
          -0.42
        ],
        "assembly_order": 3,
        "material_zone": "black_steel",
        "detail_level": "web_low"
      },
      "translation": [
        -0.05149996280670166,
        10.184999942779541,
        -0.9474999308586121
      ],
      "scale": [
        6.894999980926514,
        6.894999980926514,
        6.894999980926514
      ],
      "mesh": 8
    },
    {
      "name": "PART__BLADE_A",
      "extras": {
        "asset_zone": "white_composite",
        "airfoil_stations": 14,
        "twist_root_degrees": 23,
        "blade_angle_degrees": 0,
        "canonical_name": "PART__BLADE_A",
        "interactive": true,
        "display_name": "叶片 A",
        "part_type": "rotor",
        "explode_vector": [
          0,
          -0.58,
          0
        ],
        "assembly_order": 10,
        "material_zone": "white_composite",
        "detail_level": "web_low"
      },
      "translation": [
        -0.05149996280670166,
        4.105000019073486,
        -0.7674999237060547
      ],
      "scale": [
        6.894999980926514,
        6.894999980926514,
        6.894999980926514
      ],
      "mesh": 9
    },
    {
      "name": "PART__BLADE_B",
      "extras": {
        "asset_zone": "white_composite",
        "airfoil_stations": 14,
        "twist_root_degrees": 23,
        "blade_angle_degrees": 120,
        "canonical_name": "PART__BLADE_B",
        "interactive": true,
        "display_name": "叶片 B",
        "part_type": "rotor",
        "explode_vector": [
          0,
          -0.58,
          0
        ],
        "assembly_order": 10,
        "material_zone": "white_composite",
        "detail_level": "web_low"
      },
      "translation": [
        -0.05149996280670166,
        4.105000019073486,
        -0.7674999237060547
      ],
      "scale": [
        6.894999980926514,
        6.894999980926514,
        6.894999980926514
      ],
      "mesh": 10
    },
    {
      "name": "PART__BLADE_C",
      "extras": {
        "asset_zone": "white_composite",
        "airfoil_stations": 14,
        "twist_root_degrees": 23,
        "blade_angle_degrees": 240,
        "canonical_name": "PART__BLADE_C",
        "interactive": true,
        "display_name": "叶片 C",
        "part_type": "rotor",
        "explode_vector": [
          0,
          -0.58,
          0
        ],
        "assembly_order": 10,
        "material_zone": "white_composite",
        "detail_level": "web_low"
      },
      "translation": [
        -0.05149996280670166,
        4.105000019073486,
        -0.7674999237060547
      ],
      "scale": [
        6.894999980926514,
        6.894999980926514,
        6.894999980926514
      ],
      "mesh": 11
    },
    {
      "name": "PART__HUB",
      "extras": {
        "asset_zone": "white_composite",
        "canonical_name": "PART__HUB",
        "interactive": true,
        "display_name": "三叶轮毂",
        "part_type": "rotor",
        "explode_vector": [
          0,
          -0.58,
          0
        ],
        "assembly_order": 10,
        "material_zone": "white_composite",
        "detail_level": "web_low"
      },
      "translation": [
        -0.05149996280670166,
        10.65500020980835,
        -0.047499895095825195
      ],
      "scale": [
        6.894999980926514,
        6.894999980926514,
        6.894999980926514
      ],
      "mesh": 12
    },
    {
      "name": "PART__MAIN_SHAFT",
      "extras": {
        "asset_zone": "red_transmission",
        "canonical_name": "PART__MAIN_SHAFT",
        "interactive": true,
        "display_name": "主轴与法兰",
        "part_type": "drivetrain",
        "explode_vector": [
          0,
          -0.24,
          0
        ],
        "assembly_order": 9,
        "material_zone": "red_transmission",
        "detail_level": "web_low"
      },
      "translation": [
        -0.05149996280670166,
        5.782499049704794,
        -4.404999657974895
      ],
      "rotation": [
        -0.7071068882942236,
        0,
        0,
        0.7071066740788552
      ],
      "scale": [
        6.894999980926514,
        6.894999744920839,
        6.894999744920839
      ],
      "mesh": 13
    },
    {
      "name": "PART__SPINNER",
      "extras": {
        "asset_zone": "white_composite",
        "canonical_name": "PART__SPINNER",
        "interactive": true,
        "display_name": "导流罩",
        "part_type": "rotor",
        "explode_vector": [
          0,
          -0.98,
          0
        ],
        "assembly_order": 11,
        "material_zone": "white_composite",
        "detail_level": "web_low"
      },
      "translation": [
        -0.05149996280670166,
        4.105000019073486,
        -0.7674999237060547
      ],
      "scale": [
        6.894999980926514,
        6.894999980926514,
        6.894999980926514
      ],
      "mesh": 14
    },
    {
      "name": "ROTOR__ASSEMBLY",
      "extras": {
        "display_name": "转子总成",
        "rotation_axis": "Y",
        "rpm": 8.5
      },
      "children": [
        18,
        19,
        20,
        21,
        22,
        23
      ]
    },
    {
      "name": "C_TURBINE_ROOT",
      "extras": {
        "asset_id": "C_dismantlable_wind_turbine_v3_proportion_corrected",
        "units": "meter",
        "up_axis": "+Z",
        "rotor_axis": "+Y"
      },
      "children": [
        0,
        1,
        2,
        3,
        4,
        5,
        6,
        7,
        8,
        9,
        10,
        11,
        12,
        13,
        14,
        15,
        16,
        17,
        24
      ]
    }
  ],
  "scenes": [
    {
      "name": "Scene",
      "nodes": [
        25
      ]
    }
  ],
  "scene": 0,
  "extensionsUsed": [
    "KHR_mesh_quantization",
    "KHR_texture_basisu"
  ],
  "extensionsRequired": [
    "KHR_mesh_quantization",
    "KHR_texture_basisu"
  ]
}